<mxfile host="65bd71144e">
    <diagram id="W06MQuD4QaH95ysN1VeN" name="Page-1">
        <mxGraphModel dx="1663" dy="974" grid="1" gridSize="10" guides="1" tooltips="1" connect="1" arrows="1" fold="1" page="1" pageScale="1" pageWidth="1700" pageHeight="1100" math="0" shadow="0">
            <root>
                <mxCell id="0"/>
                <mxCell id="1" parent="0"/>
                <mxCell id="21" style="edgeStyle=none;html=1;exitX=0.5;exitY=1;exitDx=0;exitDy=0;" parent="1" source="7" target="15" edge="1">
                    <mxGeometry relative="1" as="geometry"/>
                </mxCell>
                <mxCell id="7" value="Pre-Process Search Prompt" style="swimlane;whiteSpace=wrap;html=1;" parent="1" vertex="1">
                    <mxGeometry x="820" y="205" width="200" height="130" as="geometry"/>
                </mxCell>
                <mxCell id="13" value="OpenAIModel" style="rounded=0;whiteSpace=wrap;html=1;align=center;" parent="7" vertex="1">
                    <mxGeometry x="40" y="40" width="120" height="30" as="geometry"/>
                </mxCell>
                <mxCell id="14" value="generate_response" style="rounded=0;whiteSpace=wrap;html=1;align=center;" parent="7" vertex="1">
                    <mxGeometry x="40" y="80" width="120" height="30" as="geometry"/>
                </mxCell>
                <mxCell id="25" style="edgeStyle=none;html=1;" parent="1" source="15" target="18" edge="1">
                    <mxGeometry relative="1" as="geometry"/>
                </mxCell>
                <mxCell id="15" value="Search Database" style="swimlane;whiteSpace=wrap;html=1;" parent="1" vertex="1">
                    <mxGeometry x="820" y="495" width="200" height="130" as="geometry"/>
                </mxCell>
                <mxCell id="16" value="VectorDatabase" style="rounded=0;whiteSpace=wrap;html=1;align=center;" parent="15" vertex="1">
                    <mxGeometry x="40" y="40" width="120" height="30" as="geometry"/>
                </mxCell>
                <mxCell id="17" value="search" style="rounded=0;whiteSpace=wrap;html=1;align=center;" parent="15" vertex="1">
                    <mxGeometry x="40" y="80" width="120" height="30" as="geometry"/>
                </mxCell>
                <mxCell id="18" value="Process Prompt" style="swimlane;whiteSpace=wrap;html=1;" parent="1" vertex="1">
                    <mxGeometry x="820" y="765" width="200" height="130" as="geometry"/>
                </mxCell>
                <mxCell id="19" value="OpenAIModel" style="rounded=0;whiteSpace=wrap;html=1;align=center;" parent="18" vertex="1">
                    <mxGeometry x="40" y="40" width="120" height="30" as="geometry"/>
                </mxCell>
                <mxCell id="20" value="generate_response" style="rounded=0;whiteSpace=wrap;html=1;align=center;" parent="18" vertex="1">
                    <mxGeometry x="40" y="80" width="120" height="30" as="geometry"/>
                </mxCell>
                <mxCell id="22" value="Processed Prompt" style="text;html=1;align=center;verticalAlign=middle;whiteSpace=wrap;rounded=0;" parent="1" vertex="1">
                    <mxGeometry x="935" y="395" width="60" height="30" as="geometry"/>
                </mxCell>
                <mxCell id="23" style="edgeStyle=none;html=1;exitX=0.75;exitY=1;exitDx=0;exitDy=0;entryX=0.745;entryY=0.667;entryDx=0;entryDy=0;entryPerimeter=0;" parent="1" source="22" target="22" edge="1">
                    <mxGeometry relative="1" as="geometry"/>
                </mxCell>
                <mxCell id="24" value="Context from embeddings" style="text;html=1;align=center;verticalAlign=middle;whiteSpace=wrap;rounded=0;" parent="1" vertex="1">
                    <mxGeometry x="935" y="675" width="60" height="30" as="geometry"/>
                </mxCell>
                <mxCell id="27" style="edgeStyle=none;html=1;entryX=0;entryY=0.5;entryDx=0;entryDy=0;" parent="1" source="26" target="18" edge="1">
                    <mxGeometry relative="1" as="geometry"/>
                </mxCell>
                <mxCell id="26" value="User Prompt" style="text;html=1;align=center;verticalAlign=middle;whiteSpace=wrap;rounded=0;" parent="1" vertex="1">
                    <mxGeometry x="680" y="815" width="70" height="30" as="geometry"/>
                </mxCell>
                <mxCell id="30" style="edgeStyle=none;html=1;" parent="1" source="29" edge="1">
                    <mxGeometry relative="1" as="geometry">
                        <mxPoint x="820" y="270" as="targetPoint"/>
                    </mxGeometry>
                </mxCell>
                <mxCell id="29" value="User Prompt" style="text;html=1;align=center;verticalAlign=middle;whiteSpace=wrap;rounded=0;" parent="1" vertex="1">
                    <mxGeometry x="680" y="255" width="70" height="30" as="geometry"/>
                </mxCell>
                <mxCell id="31" value="&lt;font style=&quot;font-size: 24px;&quot;&gt;&lt;b&gt;ResearchAgent&lt;/b&gt;&lt;/font&gt;" style="text;html=1;align=center;verticalAlign=middle;whiteSpace=wrap;rounded=0;" vertex="1" parent="1">
                    <mxGeometry x="725" y="40" width="250" height="30" as="geometry"/>
                </mxCell>
            </root>
        </mxGraphModel>
    </diagram>
</mxfile>